<svg width="100" height="100" viewBox="0 0 100 100" fill="none" xmlns="http://www.w3.org/2000/svg">
<rect width="100" height="100" fill="#17729E"/>
<path d="M72.3182 42.6289L66.2273 73.4219C66.0305 74.3333 65.0941 74.9965 64 75H36C34.9059 74.9965 33.9695 74.3333 33.7727 73.4219L27.6818 42.6289C27.4809 41.5797 28.3227 40.5912 29.5614 40.4211C29.6764 40.4053 29.7927 40.3972 29.9091 40.3965H70.0455C71.3005 40.3826 72.3309 41.2333 72.3473 42.296C72.3491 42.4076 72.3391 42.5189 72.3182 42.6289ZM75 34.6228C75 35.6855 73.9823 36.5473 72.7273 36.5473H27.2727C26.0177 36.5473 25 35.6855 25 34.6228C25 33.56 26.0177 32.6982 27.2727 32.6982H38.6364V26.9246C38.6364 25.8618 39.6541 25 40.9091 25H59.0909C60.3459 25 61.3636 25.8618 61.3636 26.9246V32.6982H72.7273C73.9823 32.6982 75 33.56 75 34.6228ZM56.8182 32.6982V28.8491H43.1818V32.6982H56.8182Z" fill="white"/>
</svg>
