<svg width="25" height="25" viewBox="0 0 25 25" fill="none" xmlns="http://www.w3.org/2000/svg">
<g clip-path="url(#clip0_634_183)">
<path d="M12.5 25C19.4036 25 25 19.4036 25 12.5C25 5.59644 19.4036 0 12.5 0C5.59644 0 0 5.59644 0 12.5C0 19.4036 5.59644 25 12.5 25Z" fill="#F0F0F0"/>
<path d="M24.2225 8.15225H10.8696V4.89136H4.3478V8.15225H0.77749C0.275049 9.50635 0 10.971 0 12.5C0 14.0291 0.275049 15.4937 0.77749 16.8479L12.5 17.9348L24.2225 16.8479C24.725 15.4937 25 14.0291 25 12.5C25 10.971 24.725 9.50635 24.2225 8.15225Z" fill="#0052B4"/>
<path d="M12.5001 25C17.8747 25 22.4564 21.6078 24.2226 16.8478H0.777588C2.54375 21.6078 7.12554 25 12.5001 25Z" fill="#D80027"/>
<path d="M4.3479 8.15222V9.23914C4.3479 11.7353 7.60879 12.5001 7.60879 12.5001C7.60879 12.5001 10.8697 11.7353 10.8697 9.23914V8.15222L9.78271 9.23919L7.60879 7.60876L5.43486 9.23919L4.3479 8.15222Z" fill="#F0F0F0"/>
</g>
<defs>
<clipPath id="clip0_634_183">
<rect width="25" height="25" fill="white"/>
</clipPath>
</defs>
</svg>
