<svg width="25" height="25" viewBox="0 0 25 25" fill="none" xmlns="http://www.w3.org/2000/svg">
<g clip-path="url(#clip0_634_292)">
<path d="M25 12.5C25 10.9709 24.725 9.50625 24.2225 8.15215L12.5 7.60864L0.77749 8.1521C0.275049 9.50625 0 10.9709 0 12.5C0 14.029 0.275049 15.4937 0.77749 16.8478L12.5 17.3913L24.2225 16.8478C24.725 15.4937 25 14.029 25 12.5Z" fill="#496E2D"/>
<path d="M12.5001 25C17.8747 25 22.4564 21.6078 24.2226 16.8478H0.777588C2.54375 21.6078 7.12554 25 12.5001 25Z" fill="#D80027"/>
<path d="M0.777588 8.1522H24.2227C22.4564 3.39219 17.8747 0 12.5001 0C7.12554 0 2.54375 3.39219 0.777588 8.1522V8.1522Z" fill="#F0F0F0"/>
</g>
<defs>
<clipPath id="clip0_634_292">
<rect width="25" height="25" fill="white"/>
</clipPath>
</defs>
</svg>
