<svg width="100" height="100" viewBox="0 0 100 100" fill="none" xmlns="http://www.w3.org/2000/svg">
<rect width="100" height="100" fill="#17729E"/>
<path d="M77.0718 38.2282L65.6015 32.4907C64.6244 32.0041 63.5478 31.7506 62.4562 31.75H51.9586V29.7344C52.9155 29.347 53.7617 28.7287 54.4215 27.9346C55.0813 27.1406 55.5343 26.1955 55.7399 25.1838C55.9456 24.172 55.8975 23.1251 55.6 22.1365C55.3025 21.1479 54.7649 20.2483 54.0351 19.518C52.8443 18.381 51.2612 17.7466 49.6148 17.7466C47.9684 17.7466 46.3853 18.381 45.1945 19.518C44.7535 19.9575 44.5051 20.5542 44.504 21.1768C44.5029 21.7994 44.7492 22.3969 45.1886 22.8379C45.6281 23.279 46.2248 23.5273 46.8474 23.5284C47.47 23.5295 48.0675 23.2833 48.5086 22.8438C48.8016 22.5504 49.1993 22.3855 49.614 22.3852C50.0287 22.385 50.4265 22.5495 50.7199 22.8426C51.0133 23.1357 51.1782 23.5333 51.1785 23.948C51.1787 24.3628 51.0141 24.7606 50.7211 25.054C50.577 25.2016 50.405 25.3191 50.2151 25.3996C50.0251 25.4801 49.8211 25.5219 49.6148 25.5227C48.9932 25.5227 48.3971 25.7696 47.9575 26.2092C47.518 26.6487 47.2711 27.2449 47.2711 27.8665V31.75H36.5437C35.4522 31.7513 34.3758 32.0047 33.3984 32.4907L21.9281 38.2282C21.0096 38.6895 20.2677 39.4392 19.816 40.3624C19.3643 41.2857 19.2278 42.3316 19.4273 43.3399L21.0445 51.4188C21.2569 52.4814 21.8309 53.4376 22.6689 54.1248C23.5068 54.8119 24.5569 55.1874 25.6406 55.1875H30.75V78.625C30.75 79.8682 31.2438 81.0605 32.1229 81.9396C33.002 82.8187 34.1943 83.3125 35.4375 83.3125H63.5625C64.8057 83.3125 65.998 82.8187 66.877 81.9396C67.7561 81.0605 68.25 79.8682 68.25 78.625V55.1875H73.3593C74.4427 55.1875 75.4925 54.8123 76.3304 54.1257C77.1683 53.439 77.7426 52.4833 77.9554 51.4211L79.5726 43.3399C79.7722 42.3316 79.6356 41.2857 79.184 40.3624C78.7323 39.4392 77.9903 38.6895 77.0718 38.2282ZM54.6984 36.4375C54.0474 37.1742 53.2473 37.7641 52.3511 38.1681C51.4549 38.5721 50.483 38.781 49.5 38.781C48.5169 38.781 47.5451 38.5721 46.6488 38.1681C45.7526 37.7641 44.9525 37.1742 44.3015 36.4375H54.6984ZM73.3593 50.5H65.9062C65.2846 50.5 64.6885 50.747 64.2489 51.1865C63.8094 51.6261 63.5625 52.2222 63.5625 52.8438V78.625H35.4375V52.8438C35.4375 52.2222 35.1905 51.6261 34.751 51.1865C34.3115 50.747 33.7153 50.5 33.0937 50.5H25.6406L24.0234 42.4211L35.4937 36.6836C35.8206 36.5232 36.1796 36.4391 36.5437 36.4375H38.7937C39.6981 38.5259 41.1936 40.3041 43.0958 41.5533C44.9981 42.8024 47.2242 43.468 49.5 43.468C51.7757 43.468 54.0018 42.8024 55.9041 41.5533C57.8064 40.3041 59.3018 38.5259 60.2062 36.4375H62.4562C62.8203 36.4391 63.1793 36.5232 63.5062 36.6836L74.9765 42.4211L73.3593 50.5Z" fill="white"/>
<path d="M42.6015 61.2071C42.1063 62.1238 41.2014 63.7965 42.803 64.9144C43.3064 65.2622 43.87 65.5026 44.4618 65.6219C44.9127 65.6918 44.935 66.4169 44.4053 66.3999C43.8408 66.3703 41.0913 66.1034 40.6498 63.9473C40.4216 62.688 40.6797 61.5598 41.389 60.3354L42.4119 58.445L40.4954 57.3054L45.5999 54.1332V60.2666L43.6846 59.202L42.6015 61.2071ZM48.8266 51.1187C50.5206 50.1558 51.5003 51.778 52.0401 52.6628L53.2221 54.5995L51.3654 55.8383L56.5999 58.7118L56.311 52.5386L54.4573 53.7754L53.3425 51.9528C52.5772 50.8091 52.0166 49.9644 50.6511 49.5838C48.2502 49.1044 46.7743 52.0163 46.7894 51.9973C46.549 52.4375 47.1056 52.8252 47.4509 52.3193C47.8296 51.8285 48.2971 51.4206 48.8266 51.1187ZM58.4978 60.6054C58.3692 60.3146 57.6931 60.3888 57.8833 61.0148C58.0757 61.6116 58.1539 62.242 58.1135 62.8702C57.9771 64.8819 56.1365 64.8666 55.1333 64.8666H52.9333V62.5666L47.7999 65.6332L52.9157 68.7382L52.9224 66.3999H55.1333C56.4395 66.4234 57.4798 66.1302 58.3599 65.3066C60.1199 63.6798 58.4978 60.6054 58.4978 60.6054Z" fill="white"/>
</svg>
