<svg width="100" height="101" viewBox="0 0 100 101" fill="none" xmlns="http://www.w3.org/2000/svg">
<rect y="0.0246582" width="100" height="100" fill="#D80027"/>
<path d="M47.9999 30.2338C48.2762 30.2338 48.5411 30.124 48.7365 29.9287C48.9319 29.7333 49.0416 29.4683 49.0416 29.1921V28.1507C49.0429 28.013 49.017 27.8765 48.9652 27.7489C48.9135 27.6214 48.837 27.5054 48.7401 27.4076C48.6432 27.3098 48.528 27.2321 48.4009 27.1791C48.2739 27.1262 48.1376 27.0989 48 27.0989C47.8623 27.0989 47.726 27.1262 47.599 27.1791C47.4719 27.2321 47.3567 27.3098 47.2598 27.4076C47.1629 27.5054 47.0864 27.6214 47.0347 27.7489C46.9829 27.8765 46.957 28.013 46.9583 28.1507V29.1921C46.9583 29.4683 47.068 29.7333 47.2634 29.9286C47.4587 30.124 47.7236 30.2337 47.9999 30.2338Z" fill="white"/>
<path d="M40.6345 32.6742C40.8306 32.866 41.0944 32.9727 41.3687 32.9712C41.6429 32.9696 41.9056 32.86 42.0995 32.666C42.2934 32.472 42.403 32.2094 42.4045 31.9351C42.406 31.6608 42.2992 31.397 42.1074 31.201L41.3709 30.4644C41.1748 30.2727 40.911 30.166 40.6367 30.1675C40.3624 30.169 40.0998 30.2787 39.9059 30.4727C39.7119 30.6666 39.6023 30.9293 39.6008 31.2035C39.5994 31.4778 39.7061 31.7416 39.8979 31.9377L40.6345 32.6742Z" fill="white"/>
<path d="M37.5833 39.607H38.625C38.8995 39.6044 39.1619 39.4935 39.355 39.2984C39.5482 39.1033 39.6566 38.8399 39.6566 38.5654C39.6566 38.2909 39.5482 38.0274 39.355 37.8324C39.1619 37.6373 38.8995 37.5264 38.625 37.5237H37.5833C37.4456 37.5224 37.3091 37.5484 37.1816 37.6001C37.054 37.6519 36.938 37.7284 36.8402 37.8252C36.7424 37.9221 36.6647 38.0374 36.6118 38.1644C36.5588 38.2915 36.5315 38.4277 36.5315 38.5654C36.5315 38.703 36.5588 38.8393 36.6118 38.9663C36.6647 39.0934 36.7424 39.2087 36.8402 39.3055C36.938 39.4024 37.054 39.4789 37.1816 39.5307C37.3091 39.5824 37.4456 39.6084 37.5833 39.607Z" fill="white"/>
<path d="M54.6293 32.9793C54.7661 32.9795 54.9016 32.9526 55.028 32.9003C55.1544 32.848 55.2692 32.7712 55.3658 32.6743L56.1024 31.9379C56.2977 31.7425 56.4075 31.4776 56.4076 31.2013C56.4076 30.925 56.2979 30.66 56.1025 30.4646C55.9072 30.2692 55.6423 30.1595 55.366 30.1594C55.0897 30.1594 54.8247 30.2691 54.6293 30.4644L53.8928 31.2009C53.7471 31.3465 53.6479 31.5322 53.6077 31.7342C53.5675 31.9363 53.5881 32.1457 53.6669 32.3361C53.7458 32.5264 53.8793 32.6891 54.0506 32.8036C54.2219 32.9181 54.4233 32.9792 54.6293 32.9792V32.9793Z" fill="white"/>
<path d="M57.375 39.607H58.4166C58.5543 39.6084 58.6908 39.5824 58.8184 39.5307C58.9459 39.4789 59.0619 39.4024 59.1597 39.3055C59.2575 39.2087 59.3352 39.0934 59.3882 38.9663C59.4411 38.8393 59.4684 38.703 59.4684 38.5654C59.4684 38.4277 59.4411 38.2915 59.3882 38.1644C59.3352 38.0374 59.2575 37.9221 59.1597 37.8252C59.0619 37.7284 58.9459 37.6519 58.8184 37.6001C58.6908 37.5484 58.5543 37.5224 58.4166 37.5237H57.375C57.2374 37.5224 57.1009 37.5484 56.9733 37.6001C56.8458 37.6519 56.7297 37.7284 56.6319 37.8252C56.5341 37.9221 56.4565 38.0374 56.4035 38.1644C56.3505 38.2915 56.3232 38.4277 56.3232 38.5654C56.3232 38.703 56.3505 38.8393 56.4035 38.9663C56.4565 39.0934 56.5341 39.2087 56.6319 39.3055C56.7297 39.4024 56.8458 39.4789 56.9733 39.5307C57.1009 39.5824 57.2374 39.6084 57.375 39.607Z" fill="white"/>
<path d="M70.915 59.4C70.9158 59.3052 70.9037 59.2108 70.8789 59.1193L66.6934 43.9855C66.5099 43.3274 66.1162 42.7473 65.5725 42.3335C65.0288 41.9198 64.3647 41.6951 63.6815 41.6936H54.5851C55.1134 40.5822 55.3518 39.3552 55.2781 38.1268C55.2045 36.8985 54.8211 35.7087 54.1638 34.6685C53.5064 33.6282 52.5965 32.7712 51.5187 32.1773C50.4409 31.5834 49.2304 31.272 47.9998 31.272C46.7692 31.272 45.5587 31.5834 44.4809 32.1773C43.4031 32.7712 42.4932 33.6282 41.8359 34.6685C41.1785 35.7087 40.7952 36.8985 40.7215 38.1268C40.6478 39.3552 40.8862 40.5822 41.4145 41.6936H32.3184C31.6351 41.6951 30.9711 41.9198 30.4273 42.3335C29.8836 42.7473 29.4899 43.3274 29.3064 43.9856L25.1209 59.1189C25.0961 59.2104 25.084 59.3049 25.0848 59.3997H25.0833V61.4833C25.0842 62.3118 25.4137 63.1061 25.9996 63.6919C26.5854 64.2778 27.3797 64.6073 28.2083 64.6083H44.875V66.6923H37.5871C36.7585 66.6932 35.9642 67.0227 35.3784 67.6086C34.7925 68.1944 34.463 68.9887 34.4621 69.8173V71.9006C34.4621 72.1768 34.5718 72.4418 34.7672 72.6371C34.9625 72.8325 35.2275 72.9423 35.5038 72.9423H60.4961C60.7724 72.9423 61.0374 72.8325 61.2327 72.6371C61.4281 72.4418 61.5378 72.1768 61.5378 71.9006V69.8173C61.5369 68.9887 61.2074 68.1944 60.6215 67.6086C60.0357 67.0227 59.2414 66.6932 58.4128 66.6923H51.125V64.6083H67.7916C68.6201 64.6073 69.4144 64.2778 70.0002 63.6919C70.5861 63.1061 70.9156 62.3118 70.9166 61.4833V59.4H70.915ZM52.8499 43.7766L53.7136 50.025H42.2878L43.1516 43.7763L52.8499 43.7766ZM54.0016 52.1087L54.8652 58.355H41.1362L41.9997 52.1088L54.0016 52.1087ZM56.9683 58.355L56.1048 52.1088H66.7787L68.5062 58.355H56.9683ZM64.6855 44.5406L66.2024 50.025H55.8168L54.9531 43.7766H63.6816C63.9093 43.7772 64.1306 43.8521 64.3118 43.99C64.4931 44.1279 64.6243 44.3213 64.6855 44.5406ZM42.7917 38.5655C42.7916 37.7401 42.9877 36.9264 43.3638 36.1917C43.7399 35.4569 44.2853 34.8221 44.955 34.3396C45.6247 33.857 46.3995 33.5405 47.2155 33.4163C48.0315 33.292 48.8654 33.3635 49.6483 33.6248C50.4313 33.8861 51.1409 34.3298 51.7187 34.9193C52.2965 35.5087 52.7259 36.2271 52.9715 37.0152C53.2171 37.8032 53.2719 38.6383 53.1313 39.4517C52.9907 40.265 52.6588 41.0333 52.1629 41.6932H43.8371C43.1581 40.7919 42.7912 39.6939 42.7917 38.5655ZM31.3144 44.5405C31.3757 44.3212 31.5069 44.1279 31.6881 43.99C31.8693 43.8521 32.0906 43.7772 32.3183 43.7766H41.0482L40.1844 50.025H29.7975L31.3144 44.5405ZM29.2212 52.1089H39.8964L39.033 58.355H27.4937L29.2212 52.1089ZM59.4544 69.8173V70.8589H36.5449V69.8173C36.5452 69.5411 36.655 69.2763 36.8503 69.081C37.0456 68.8857 37.3104 68.7759 37.5866 68.7756H58.4128C58.689 68.7759 58.9538 68.8857 59.149 69.081C59.3443 69.2763 59.4541 69.5411 59.4544 69.8173ZM49.0416 66.6923H46.9583V64.6083H49.0416V66.6923ZM67.7916 62.525H28.2083C27.9321 62.5247 27.6673 62.4148 27.472 62.2195C27.2767 62.0242 27.1669 61.7594 27.1666 61.4833V60.4383H68.8333V61.4833C68.8329 61.7594 68.7231 62.0242 68.5278 62.2195C68.3325 62.4148 68.0677 62.5247 67.7916 62.525Z" fill="white"/>
<path d="M70.915 59.4C70.9158 59.3052 70.9037 59.2108 70.8789 59.1193L66.6934 43.9855C66.5099 43.3274 66.1162 42.7473 65.5725 42.3335C65.0288 41.9198 64.3647 41.6951 63.6815 41.6936H54.5851C55.1134 40.5822 55.3518 39.3552 55.2781 38.1268C55.2045 36.8985 54.8211 35.7087 54.1638 34.6685C53.5064 33.6282 52.5965 32.7712 51.5187 32.1773C50.4409 31.5834 49.2304 31.272 47.9998 31.272C46.7692 31.272 45.5587 31.5834 44.4809 32.1773C43.4031 32.7712 42.4932 33.6282 41.8359 34.6685C41.1785 35.7087 40.7952 36.8985 40.7215 38.1268C40.6478 39.3552 40.8862 40.5822 41.4145 41.6936H32.3184C31.6351 41.6951 30.9711 41.9198 30.4273 42.3335C29.8836 42.7473 29.4899 43.3274 29.3064 43.9856L25.1209 59.1189C25.0961 59.2104 25.084 59.3049 25.0848 59.3997H25.0833V61.4833C25.0842 62.3118 25.4137 63.1061 25.9996 63.6919C26.5854 64.2778 27.3797 64.6073 28.2083 64.6083H44.875V66.6923H37.5871C36.7585 66.6932 35.9642 67.0227 35.3784 67.6086C34.7925 68.1944 34.463 68.9887 34.4621 69.8173V71.9006C34.4621 72.1768 34.5718 72.4418 34.7672 72.6371C34.9625 72.8325 35.2275 72.9423 35.5038 72.9423H60.4961C60.7724 72.9423 61.0374 72.8325 61.2327 72.6371C61.4281 72.4418 61.5378 72.1768 61.5378 71.9006V69.8173C61.5369 68.9887 61.2074 68.1944 60.6215 67.6086C60.0357 67.0227 59.2414 66.6932 58.4128 66.6923H51.125V64.6083H67.7916C68.6201 64.6073 69.4144 64.2778 70.0002 63.6919C70.5861 63.1061 70.9156 62.3118 70.9166 61.4833V59.4H70.915ZM52.8499 43.7766L53.7136 50.025H42.2878L43.1516 43.7763L52.8499 43.7766ZM54.0016 52.1087L54.8652 58.355H41.1362L41.9997 52.1088L54.0016 52.1087ZM56.9683 58.355L56.1048 52.1088H66.7787L68.5062 58.355H56.9683ZM64.6855 44.5406L66.2024 50.025H55.8168L54.9531 43.7766H63.6816C63.9093 43.7772 64.1306 43.8521 64.3118 43.99C64.4931 44.1279 64.6243 44.3213 64.6855 44.5406ZM42.7917 38.5655C42.7916 37.7401 42.9877 36.9264 43.3638 36.1917C43.7399 35.4569 44.2853 34.8221 44.955 34.3396C45.6247 33.857 46.3995 33.5405 47.2155 33.4163C48.0315 33.292 48.8654 33.3635 49.6483 33.6248C50.4313 33.8861 51.1409 34.3298 51.7187 34.9193C52.2965 35.5087 52.7259 36.2271 52.9715 37.0152C53.2171 37.8032 53.2719 38.6383 53.1313 39.4517C52.9907 40.265 52.6588 41.0333 52.1629 41.6932H43.8371C43.1581 40.7919 42.7912 39.6939 42.7917 38.5655ZM31.3144 44.5405C31.3757 44.3212 31.5069 44.1279 31.6881 43.99C31.8693 43.8521 32.0906 43.7772 32.3183 43.7766H41.0482L40.1844 50.025H29.7975L31.3144 44.5405ZM29.2212 52.1089H39.8964L39.033 58.355H27.4937L29.2212 52.1089ZM59.4544 69.8173V70.8589H36.5449V69.8173C36.5452 69.5411 36.655 69.2763 36.8503 69.081C37.0456 68.8857 37.3104 68.7759 37.5866 68.7756H58.4128C58.689 68.7759 58.9538 68.8857 59.149 69.081C59.3443 69.2763 59.4541 69.5411 59.4544 69.8173ZM49.0416 66.6923H46.9583V64.6083H49.0416V66.6923ZM67.7916 62.525H28.2083C27.9321 62.5247 27.6673 62.4148 27.472 62.2195C27.2767 62.0242 27.1669 61.7594 27.1666 61.4833V60.4383H68.8333V61.4833C68.8329 61.7594 68.7231 62.0242 68.5278 62.2195C68.3325 62.4148 68.0677 62.5247 67.7916 62.525Z" fill="white"/>
</svg>
