<svg width="25" height="25" viewBox="0 0 25 25" fill="none" xmlns="http://www.w3.org/2000/svg">
<g clip-path="url(#clip0_634_279)">
<path d="M12.5 25C19.4036 25 25 19.4036 25 12.5C25 5.59644 19.4036 0 12.5 0C5.59644 0 0 5.59644 0 12.5C0 19.4036 5.59644 25 12.5 25Z" fill="#F0F0F0"/>
<path d="M12.5 9.23916H24.5694C24.256 8.07637 23.7796 6.98062 23.1653 5.97827H12.5V9.23916Z" fill="#338AF3"/>
<path d="M4.71895 22.2826H20.2811C21.4219 21.374 22.4002 20.2704 23.1653 19.0217H1.83472C2.5999 20.2704 3.57822 21.374 4.71895 22.2826V22.2826Z" fill="#338AF3"/>
<path d="M4.34785 3.02441C3.36514 3.87065 2.51558 4.86719 1.83472 5.97832H4.34785V3.02441Z" fill="#338AF3"/>
<path d="M12.5 12.5C12.5 11.2268 12.5 10.1612 12.5 9.23914H7.60869V12.5H4.3478V9.23914H0.430615C0.150391 10.2789 0 11.3718 0 12.5C0 13.6283 0.150391 14.7212 0.430615 15.7609H24.5694C24.8496 14.7212 25 13.6283 25 12.5H12.5Z" fill="#338AF3"/>
<path d="M12.5 0C10.7642 0 9.11108 0.35415 7.60864 0.993555V5.97827H12.5C12.5 4.83999 12.5 3.87187 12.5 2.71738H20.2811C18.1458 1.0168 15.4418 0 12.5 0V0Z" fill="#338AF3"/>
</g>
<defs>
<clipPath id="clip0_634_279">
<rect width="25" height="25" fill="white"/>
</clipPath>
</defs>
</svg>
