<svg width="25" height="28" viewBox="0 0 25 28" fill="none" xmlns="http://www.w3.org/2000/svg">
<g clip-path="url(#clip0_642_40)">
<path d="M12.5 27.2366C19.4036 27.2366 25 21.304 25 13.9857C25 6.66749 19.4036 0.734863 12.5 0.734863C5.59644 0.734863 0 6.66749 0 13.9857C0 21.304 5.59644 27.2366 12.5 27.2366Z" fill="#F0F0F0"/>
<path d="M12.5001 0.734863C7.12554 0.734863 2.54375 4.33082 0.777588 9.37677H24.2227C22.4564 4.33082 17.8747 0.734863 12.5001 0.734863V0.734863Z" fill="#D80027"/>
<path d="M12.5001 27.2366C17.8747 27.2366 22.4564 23.6407 24.2226 18.5947H0.777588C2.54375 23.6407 7.12554 27.2366 12.5001 27.2366Z" fill="#338AF3"/>
</g>
<defs>
<clipPath id="clip0_642_40">
<rect width="25" height="26.5018" fill="white" transform="translate(0 0.734863)"/>
</clipPath>
</defs>
</svg>
