<svg width="25" height="25" viewBox="0 0 25 25" fill="none" xmlns="http://www.w3.org/2000/svg">
<g clip-path="url(#clip0_634_203)">
<path d="M0 12.5C0 17.8745 3.39219 22.4563 8.1521 24.2224L9.23911 12.4999L8.1521 0.777466C3.39219 2.54368 0 7.12541 0 12.5Z" fill="#6DA544"/>
<path d="M25 12.5C25 5.59648 19.4035 0 12.5 0C10.971 0 9.5063 0.275049 8.1521 0.77749V24.2225C9.5063 24.725 10.971 25 12.5 25C19.4035 25 25 19.4035 25 12.5Z" fill="#D80027"/>
<path d="M8.15225 16.8478C10.5535 16.8478 12.5 14.9012 12.5 12.5C12.5 10.0988 10.5535 8.15222 8.15225 8.15222C5.75102 8.15222 3.80444 10.0988 3.80444 12.5C3.80444 14.9012 5.75102 16.8478 8.15225 16.8478Z" fill="#FFDA44"/>
<path d="M5.70654 10.326V13.0434C5.70654 14.3941 6.80146 15.4891 8.1522 15.4891C9.50293 15.4891 10.5979 14.3942 10.5979 13.0434V10.326H5.70654Z" fill="#D80027"/>
<path d="M8.15215 13.8587C7.70264 13.8587 7.33691 13.493 7.33691 13.0435V11.9565H8.96733V13.0435C8.96733 13.493 8.60161 13.8587 8.15215 13.8587Z" fill="#F0F0F0"/>
</g>
<defs>
<clipPath id="clip0_634_203">
<rect width="25" height="25" fill="white"/>
</clipPath>
</defs>
</svg>
