<svg width="100" height="100" viewBox="0 0 100 100" fill="none" xmlns="http://www.w3.org/2000/svg">
<rect width="100" height="100" fill="#AFC427"/>
<path d="M60.8396 61.1124C58.6177 62.7173 55.9059 63.4972 53.1707 63.3178H46.805V73.9441H40.4893V43.8697H53.5717C56.1786 43.7299 58.7465 44.5504 60.7895 46.1754C62.7178 48.04 63.7107 50.6695 63.4962 53.3432C63.8756 56.2057 62.8927 59.0813 60.8396 61.1124ZM55.8273 50.2856C54.8518 49.5463 53.6393 49.1899 52.4188 49.2831H46.805V58.1049H52.5692C53.8023 58.1696 55.0163 57.7771 55.9776 57.0022C56.8528 56.0934 57.2914 54.8504 57.1806 53.5938C57.2959 52.3662 56.8543 51.1522 55.9776 50.2856H55.8273ZM76.6788 40.2608C77.355 39.0563 76.9289 37.5321 75.7264 36.8524L53.1707 24.3214C52.4083 23.8929 51.477 23.8929 50.7146 24.3214L28.1589 36.8524C26.992 37.5967 26.6491 39.1461 27.3935 40.3129C28.0807 41.3906 29.4686 41.7786 30.6149 41.2132L52.068 29.1834L73.4207 41.0628C74.6342 41.7284 76.1575 41.2843 76.8236 40.0708L76.8292 40.0603L76.6788 40.2608Z" fill="white"/>
</svg>
