<svg width="100" height="100" viewBox="0 0 100 100" fill="none" xmlns="http://www.w3.org/2000/svg">
<rect width="100" height="100" fill="#17729E"/>
<path d="M71.1143 76.2937H28" stroke="white" stroke-width="5" stroke-linecap="round" stroke-linejoin="round"/>
<path d="M49.7664 80.5984C49.2697 80.5984 48.7841 80.7499 48.3711 81.0337C47.9581 81.3175 47.6362 81.7209 47.4461 82.1928C47.256 82.6648 47.2062 83.1841 47.3031 83.6852C47.4 84.1862 47.6392 84.6464 47.9905 85.0076C48.3417 85.3688 48.7892 85.6148 49.2764 85.7145C49.7636 85.8142 50.2686 85.763 50.7275 85.5675C51.1864 85.372 51.5787 85.041 51.8546 84.6162C52.1306 84.1915 52.2779 83.6921 52.2779 83.1813C52.2783 82.8419 52.2137 82.5059 52.0876 82.1923C51.9616 81.8787 51.7766 81.5938 51.5433 81.3539C51.31 81.1139 51.0329 80.9237 50.728 80.7941C50.4231 80.6644 50.0963 80.5979 49.7664 80.5984Z" fill="white"/>
<path d="M64.4813 10H34.633C30.9697 10 28 13.1172 28 16.9625V83.1064C28 86.9517 30.9697 90.0689 34.633 90.0689H64.4813C68.1446 90.0689 71.1143 86.9517 71.1143 83.1064V16.9625C71.1143 13.1172 68.1446 10 64.4813 10Z" stroke="white" stroke-width="5" stroke-linecap="round" stroke-linejoin="round"/>
<path d="M39.9127 46.6751C39.2533 47.876 38.048 50.0675 40.1811 51.5322C40.8515 51.9878 41.6022 52.3028 42.3904 52.4591C42.9909 52.5507 43.0206 53.5007 42.3152 53.4784C41.5634 53.4396 37.9013 53.0899 37.3134 50.2652C37.0094 48.6153 37.3532 47.1371 38.2979 45.533L39.6602 43.0562L37.1077 41.5632L43.9063 37.4072V45.4428L41.3553 44.048L39.9127 46.6751ZM48.2037 33.4577C50.4599 32.1961 51.7648 34.3216 52.4836 35.4807L54.0579 38.0181L51.5851 39.6411L58.5568 43.4058L58.1719 35.318L55.703 36.9383L54.2183 34.5506C53.199 33.0521 52.4524 31.9454 50.6338 31.4468C47.4361 30.8186 45.4704 34.6337 45.4905 34.6088C45.1703 35.1856 45.9116 35.6934 46.3715 35.0307C46.8758 34.3876 47.4986 33.8533 48.2037 33.4577ZM61.0844 45.8868C60.9131 45.5057 60.0126 45.6029 60.266 46.4231C60.5223 47.205 60.6264 48.0309 60.5727 48.8539C60.391 51.4896 57.9395 51.4695 56.6034 51.4695H53.6733V48.4561L46.8364 52.4739L53.6498 56.542L53.6588 53.4784H56.6034C58.343 53.5091 59.7286 53.125 60.9008 52.046C63.2449 49.9146 61.0844 45.8868 61.0844 45.8868Z" fill="white"/>
</svg>
